<?xml version="1.0" encoding="UTF-8"?> <svg xmlns="http://www.w3.org/2000/svg" width="2730" height="1563" viewBox="0 0 2730 1563" fill="none"><g clip-path="url(#clip0_1549_8511)"><mask id="mask0_1549_8511" style="mask-type:luminance" maskUnits="userSpaceOnUse" x="0" y="0" width="2730" height="1563"><path d="M2729.43 0H0.0078125V1563H2729.43V0Z" fill="white"></path></mask><g mask="url(#mask0_1549_8511)"><path d="M445.87 1531.27C442.315 1530.73 438.993 1529.87 435.748 1528.71H435.517L435.361 1528.55C432.039 1527 429.258 1525.29 427.019 1523.34C424.623 1521.24 422.768 1518.99 421.609 1516.42C420.452 1514.09 419.677 1511.52 419.138 1508.88C418.597 1506.32 418.364 1503.52 418.443 1500.48C418.443 1496.21 418.905 1492.16 419.677 1488.43C420.452 1484.62 421.609 1481.05 423.079 1477.78C426.942 1468.99 431.19 1460.52 435.825 1452.28C440.538 1444.04 445.714 1435.95 451.432 1428.02C457.073 1420.17 463.252 1412.32 469.973 1404.62C476.697 1396.92 483.959 1389.22 491.685 1381.6C538.813 1332.7 595.676 1295.46 654.006 1261.71C662.813 1256.66 703.838 1230.15 712.105 1237.46C746.872 1268.4 759.621 1300.98 734.587 1344.44C730.647 1351.28 726.63 1357.74 722.612 1363.64C718.595 1369.55 714.501 1375.07 710.405 1380.13C698.199 1394.43 684.986 1408.12 670.772 1421.26C656.556 1434.32 641.413 1446.76 625.266 1458.65H625.189C609.041 1469.85 592.275 1480.66 574.893 1491.15C566.084 1496.44 557.123 1501.26 548.084 1505.69C538.967 1510.13 529.696 1514.09 520.269 1517.74C516.021 1519.38 511.309 1520.93 506.286 1522.64C501.497 1524.2 496.243 1525.83 490.603 1527.46C484.885 1529.1 479.246 1530.34 473.683 1531.12C468.121 1531.89 462.557 1532.28 457.073 1532.21C453.21 1532.21 449.5 1531.82 446.024 1531.27M1298.27 937.811C1300.59 936.488 1302.67 934.465 1304.68 931.745C1307.16 928.09 1309.01 924.28 1310.25 920.237C1311.48 916.118 1312.18 911.764 1312.26 907.253C1312.33 901.346 1311.41 895.358 1309.47 889.295C1307.54 883.229 1304.61 876.931 1300.59 870.634C1297.19 866.125 1293.56 862.082 1289.62 858.349C1285.68 854.617 1281.58 851.274 1277.18 848.398C1268.3 842.489 1258.79 837.823 1248.59 834.48C1242.34 832.38 1236.23 830.67 1230.28 829.194C1224.34 827.717 1218.31 826.551 1212.2 825.618C1206.18 824.684 1200.15 823.985 1194.05 823.518C1187.79 823.051 1181.69 822.741 1175.58 822.662L1164.69 822.508C1153.64 822.662 1142.52 823.208 1131.24 824.138C1120.03 825.072 1108.91 826.317 1097.71 828.027C1086.43 829.737 1075.3 831.604 1064.56 833.626C1053.75 835.723 1043.01 837.979 1032.35 840.545C1015.5 844.278 998.893 848.475 982.514 853.063C966.212 857.65 950.064 862.626 934.149 868.068C901.931 879.03 870.022 890.228 838.424 901.733H838.27C836.415 902.356 834.253 903.133 831.626 904.066C829.076 904.999 826.295 905.932 823.435 907.022C820.424 908.186 817.256 909.352 814.088 910.752C810.997 911.998 807.521 913.551 803.734 915.184H803.504C792.145 919.461 780.017 924.126 767.191 929.256C754.288 934.388 740.459 939.987 725.857 946.13H725.78C716.664 949.783 707.47 953.515 698.199 957.481C688.926 961.445 679.271 965.644 669.072 970.309C658.872 974.973 648.753 979.484 638.864 983.914C629.437 988.113 619.163 992.623 608.191 997.443C595.907 1003.2 586.172 1007.78 579.374 1011.05C570.875 1015.09 561.448 1019.6 550.787 1024.66C541.283 1029.16 532.013 1033.75 522.973 1038.26C514.167 1042.69 505.36 1047.2 496.397 1051.87C486.352 1057.39 476.851 1062.75 467.965 1067.96C458.925 1073.25 450.273 1078.38 442.161 1083.44C433.971 1088.49 426.555 1093.39 419.988 1098.05C413.344 1102.79 407.395 1107.38 402.141 1111.89C395.033 1118.19 389.78 1124.02 386.225 1129.31C382.98 1134.21 381.281 1138.64 381.281 1142.45C381.281 1145.32 381.976 1148.12 383.521 1150.84C385.221 1153.72 387.771 1156.52 391.247 1159.24H391.324C392.714 1160.48 394.338 1161.57 396.27 1162.51C398.201 1163.52 400.364 1164.45 402.837 1165.23C405.386 1166.08 408.167 1166.86 411.179 1167.64C414.193 1168.41 417.515 1169.11 421.147 1169.81H421.378C426.632 1171.29 432.116 1172.46 437.911 1173.55C443.706 1174.56 449.888 1175.49 456.455 1176.27H456.609C465.338 1177.67 473.76 1178.99 481.794 1180.15C519.497 1185.6 557.046 1189.95 594.439 1197.18H594.67C615.146 1202.39 636.932 1207.06 656.864 1213.9C667.912 1217.71 677.493 1220.43 684.447 1222.68C696.422 1226.65 700.362 1227.11 690.163 1232.87C618.853 1272.75 552.565 1312.1 491.606 1368.46C490.061 1369.86 488.517 1371.34 487.05 1372.74C478.318 1380.67 470.207 1388.68 462.788 1396.69C455.295 1404.77 448.264 1413.09 441.774 1421.57C435.361 1429.96 429.569 1438.44 424.469 1446.91C419.369 1455.39 414.965 1463.79 411.335 1472.18C408.708 1478.01 406.544 1483.92 404.845 1489.99C404.073 1492.94 403.376 1495.89 402.991 1498.85C402.526 1501.8 402.295 1504.68 402.295 1507.4C402.295 1511.68 402.68 1515.72 403.686 1519.53C404.689 1523.34 406.236 1526.84 408.244 1530.18C410.253 1533.45 412.956 1536.33 416.432 1538.89C419.988 1541.53 424.469 1543.79 429.723 1545.73H429.8C432.349 1546.74 434.822 1547.6 437.139 1548.22C439.534 1548.84 441.928 1549.39 444.17 1549.7C446.566 1550.09 448.959 1550.32 451.432 1550.55C454.059 1550.79 456.532 1550.87 459.004 1550.94C464.412 1550.94 469.973 1550.79 475.537 1550.17C481.022 1549.62 486.662 1548.69 492.38 1547.44C498.175 1546.2 503.659 1544.88 508.99 1543.48C514.321 1542.08 519.42 1540.6 524.286 1539.05C534.563 1535.55 544.608 1531.66 554.42 1527.31C564.309 1523.03 574.043 1518.29 583.622 1513.16C593.126 1508.03 602.397 1502.58 611.59 1496.67C620.707 1490.84 629.514 1484.7 638.168 1478.25H638.245C646.821 1472.03 655.319 1465.65 663.664 1458.96C671.929 1452.36 680.043 1445.44 688.077 1438.21C696.034 1431.05 703.53 1423.59 710.715 1415.81C717.9 1407.96 724.621 1399.88 730.88 1391.48H730.957C735.592 1385.57 739.997 1379.27 744.322 1372.43C748.649 1365.67 752.82 1358.36 756.837 1350.43C783.262 1299.03 767.578 1268.48 728.174 1233.96C722.92 1229.37 721.145 1230.15 729.179 1225.64C737.524 1220.97 752.743 1215.06 767.963 1208.92C825.059 1185.83 878.6 1164.29 939.016 1150.3C943.805 1149.21 948.597 1148.36 954.004 1147.19C953.386 1148.67 953.155 1149.52 952.768 1150.22C944.038 1165.23 924.645 1192.67 925.417 1209.93C925.805 1218.18 931.443 1224.94 939.634 1225.09C945.737 1225.25 952.303 1224.94 957.944 1222.92C990.084 1211.41 1012.88 1199.83 1042.62 1183.81C1046.95 1181.48 1051.2 1179.14 1055.52 1176.81C1055.76 1177.12 1056.06 1177.43 1056.29 1177.75C1055.37 1179.69 1054.44 1181.63 1053.51 1183.5C1049.27 1192.6 1045.79 1201.92 1046.02 1212.27C1046.25 1222.22 1051.43 1227.11 1061.09 1224.86C1068.89 1223 1076.54 1220.12 1083.88 1216.85C1094.54 1212.03 1104.81 1206.51 1115.25 1201.23C1131.47 1192.98 1147.62 1184.66 1163.84 1176.58C1167.63 1174.71 1171.64 1172.61 1176.2 1174.79C1181.61 1177.43 1183.16 1176.89 1186.01 1171.29C1187.79 1167.71 1190.42 1165.69 1194.51 1165.54C1198.68 1165.3 1202.86 1164.76 1207.03 1164.76C1210.35 1164.76 1213.67 1164.99 1216.92 1165.69C1223.79 1167.25 1227.89 1171.99 1229.51 1178.68C1230.82 1184.12 1226.5 1186.92 1223.1 1189.56C1219.24 1192.52 1214.83 1194.77 1210.66 1197.42C1194.51 1207.6 1178.21 1217.4 1162.37 1228.13C1121.35 1255.96 1091.6 1287.06 1058.54 1323.06C1019.75 1365.28 976.255 1433.85 960.648 1488.98C955.471 1507.4 950.064 1527.85 955.705 1546.59C959.412 1558.72 969.765 1565.09 982.126 1562.6C992.864 1560.43 1002.83 1556.23 1012.03 1550.4C1040.15 1532.36 1064.02 1509.27 1085.89 1484.31C1127.53 1436.88 1168.09 1378.42 1197.68 1322.75C1217.07 1286.28 1241.1 1238.86 1242.34 1196.79C1242.41 1193.84 1244.81 1189.95 1247.36 1188.4C1253.61 1184.59 1260.41 1181.63 1267.14 1178.83C1294.79 1167.4 1321.6 1158.38 1349.96 1148.98C1351.12 1148.59 1352.35 1148.59 1354.59 1148.28C1353.67 1150.53 1353.13 1151.93 1352.43 1153.25C1344.09 1169.19 1335.59 1184.97 1327.4 1200.99C1325.47 1204.8 1324.08 1209.7 1327.55 1213.28C1343 1229.21 1387.2 1175.8 1395.93 1166.7C1408.44 1153.72 1420.42 1140.04 1432.94 1126.97C1438.73 1120.91 1444.06 1122.46 1443.9 1131.25C1443.75 1146.49 1452.33 1169.04 1464.38 1179.14C1472.8 1186.14 1483.23 1188.24 1493.82 1186.61C1517.3 1182.95 1546.35 1172.54 1566.21 1159.78C1566.98 1159.24 1568.14 1159.24 1569.91 1158.77C1569.14 1160.41 1568.91 1161.26 1568.37 1161.96C1558.33 1174.79 1544.65 1201.69 1545.04 1218.56C1545.19 1223.85 1548.67 1228.28 1553.92 1228.75C1573.24 1230.46 1588.77 1207.83 1600.66 1195.32C1611.4 1183.96 1621.91 1172.46 1632.65 1161.11C1635.35 1158.23 1637.59 1158.93 1639.37 1162.43C1639.91 1163.44 1640.07 1164.68 1640.53 1165.69C1649.57 1185.36 1659.61 1191.66 1679.78 1183.57C1692.76 1178.37 1704.04 1170.44 1713.93 1161.03C1732 1143.92 1750.47 1127.13 1765.23 1106.84C1766.93 1104.58 1769.32 1102.79 1771.33 1100.77C1771.72 1101.01 1772.02 1101.32 1772.41 1101.55C1772.26 1102.48 1772.41 1103.49 1772.02 1104.27C1767.62 1112.28 1763.06 1120.21 1758.66 1128.14C1750.86 1142.21 1742.82 1156.13 1735.33 1170.36C1728.22 1183.81 1721.19 1197.34 1715.01 1211.25C1708.75 1225.48 1685.5 1274.78 1699.71 1287.3C1702.18 1289.47 1704.96 1288.31 1706.12 1285.12C1707.28 1281.85 1708.06 1278.43 1709.21 1275.16C1722.27 1238.39 1734.25 1211.88 1752.48 1177.12C1760.98 1160.95 1769.86 1145.01 1779.29 1129.39C1800.15 1095.02 1822.48 1061.28 1844.8 1027.84C1847.43 1023.96 1850.98 1021.24 1855.78 1020.92C1863.35 1020.38 1871.07 1019.53 1878.64 1019.84C1919.9 1021.16 1952.27 1020.61 1992.45 1032.59C2000.71 1035.07 2008.9 1037.72 2017.25 1039.97C2018.87 1040.44 2020.88 1039.27 2022.66 1038.88C2022.04 1037.1 2021.96 1034.69 2020.72 1033.75C2007.98 1023.49 1993.3 1018.13 1977.07 1016.88C1973.9 1016.65 1970.74 1016.18 1967.65 1015.72C1939.06 1011.05 1910.01 1010.51 1881.19 1008.25C1875.86 1007.86 1870.53 1007.39 1865.28 1006.85C1862.57 1006.62 1861.49 1005.06 1862.03 1002.34C1862.88 997.599 1864.58 992.856 1864.27 988.19C1863.89 982.748 1862.65 976.995 1860.18 972.253C1857.78 967.743 1852.84 968.676 1850.21 973.109C1845.5 980.961 1840.94 988.813 1835.92 996.432C1832.21 1002.11 1827.96 1007.32 1820.47 1007.94C1807.41 1008.95 1794.35 1009.96 1781.3 1010.89C1759.74 1012.45 1738.57 1013.46 1717.09 1016.34C1707.98 1017.58 1698.86 1018.98 1689.9 1021.08C1686.96 1021.78 1684.1 1024.34 1681.94 1026.68C1679.08 1029.71 1679.85 1031.96 1683.56 1033.91C1690.13 1037.33 1697.01 1037.33 1704.27 1036.16C1730 1032.2 1755.26 1029.48 1781.06 1026.99C1789.64 1026.13 1798.29 1025.12 1806.87 1024.58C1812.12 1024.27 1813.82 1027.69 1811.2 1032.27C1810.5 1033.52 1809.65 1034.69 1808.72 1035.85C1799.3 1048.68 1789.72 1061.43 1780.37 1074.34C1758.12 1104.74 1733.63 1133.04 1705.04 1157.53C1696.08 1165.23 1686.27 1171.6 1674.52 1174.09C1656.45 1177.98 1660.39 1148.2 1650.65 1130.55C1645.63 1121.45 1633.96 1116.17 1623.92 1118.73C1617.2 1120.44 1610.48 1123.24 1604.37 1126.66C1593.71 1132.65 1583.51 1139.49 1573.01 1145.79C1567.29 1149.21 1561.49 1152.63 1555.47 1155.2C1534.92 1164.06 1502.78 1180.78 1480.76 1178.21C1460.29 1175.8 1457.66 1152.24 1457.43 1135.37C1457.35 1127.67 1458.66 1119.67 1455.11 1112.2C1449 1099.45 1435.79 1107.69 1427.99 1114.07C1417.33 1122.78 1406.98 1131.8 1396.62 1140.81C1391.29 1145.4 1386.12 1150.14 1380.86 1154.81C1380.4 1154.5 1380.01 1154.11 1379.55 1153.8C1380.78 1151.78 1382.1 1149.76 1383.33 1147.73C1385.88 1143.53 1388.9 1139.49 1390.83 1135.06C1391.76 1132.88 1391.68 1129 1390.37 1127.52C1383.41 1120.13 1373.52 1126.12 1367.19 1131.48C1362.94 1135.14 1358.3 1137.24 1353.2 1138.79C1314.5 1150.69 1285.99 1162.58 1248.75 1177.59C1240.63 1180.85 1238.71 1181.55 1233.68 1172.77C1230.28 1166.86 1225.73 1162.27 1219.7 1158.93C1211.82 1154.58 1203.4 1154.58 1194.9 1154.89C1188.1 1155.12 1187.25 1154.89 1185.01 1148.51C1178.67 1130.4 1160.29 1117.25 1140.51 1118.19C1121.04 1119.12 1104.27 1126.97 1089.9 1139.26C1077.31 1150.07 1064.64 1160.41 1049.57 1167.56C1048.03 1168.26 1046.41 1168.96 1044.94 1169.81C1021.22 1183.11 975.018 1210.55 948.44 1213.28C942.648 1213.82 939.48 1210.71 941.255 1205.11C946.124 1189.64 972.391 1160.25 982.822 1146.57C986.916 1141.2 988.075 1134.83 986.221 1128.37C985.602 1126.12 983.44 1123.4 981.354 1122.62C978.186 1121.38 974.477 1121.84 972.004 1125.11C970.075 1127.6 968.143 1130.24 965.902 1132.5C964.434 1133.97 962.58 1135.53 960.648 1135.99C950.605 1138.48 940.406 1140.42 930.363 1142.99C866.082 1159.08 811.307 1181.48 750.348 1205.97C732.889 1212.97 724.157 1218.88 713.96 1218.88C703.915 1218.88 692.482 1212.89 676.026 1206.43C652.924 1197.34 626.502 1190.73 602.089 1185.6C560.522 1177.28 519.112 1171.99 477.392 1164.92L451.663 1160.56L445.637 1159.47C443.241 1159.08 441.156 1158.7 439.301 1158.38C436.985 1158 434.743 1157.53 432.657 1156.99C430.726 1156.52 428.717 1155.9 426.709 1155.2C425.628 1155.04 424.159 1154.73 422.383 1154.19C420.296 1153.57 417.438 1152.63 413.885 1151.39C410.253 1150.14 407.395 1148.98 405.386 1147.97C402.603 1146.57 400.905 1145.17 400.133 1143.61L399.746 1142.76V1141.75C399.746 1138.95 401.446 1135.92 404.689 1132.65C407.318 1130.01 411.179 1126.97 416.278 1123.55C421.224 1120.21 426.478 1116.87 432.116 1113.45C437.988 1109.87 443.939 1106.37 450.119 1102.87C456.378 1099.37 462.634 1095.95 468.816 1092.61C474.919 1089.34 480.868 1086.23 486.816 1083.28C498.406 1077.53 505.822 1073.64 509.067 1071.69L509.3 1071.54H509.608C513.471 1069.83 517.335 1068.2 521.044 1066.49C524.751 1064.78 528.306 1063.06 531.705 1061.35C535.258 1059.57 538.813 1057.78 542.443 1056.07C545.998 1054.36 549.628 1052.72 553.337 1051.09L595.907 1031.34L631.756 1014.7C642.186 1009.88 652.305 1005.22 661.963 1000.86C671.775 996.432 680.351 992.623 687.769 989.436C694.413 986.558 701.752 983.371 709.787 980.028C716.818 977.072 723.154 974.352 728.792 972.019C733.507 970.076 739.068 967.743 745.789 964.944C752.82 961.99 758.151 959.735 762.168 958.025H762.247L814.937 936.798C817.641 935.478 820.267 934.232 822.894 933.145C825.444 932.056 827.994 930.968 830.697 929.956C833.401 928.869 835.951 927.936 838.347 927.08C840.897 926.146 843.523 925.136 846.227 924.203C862.298 918.371 878.213 912.775 894.05 907.486C910.121 902.044 926.036 896.914 941.642 892.015C957.403 887.039 973.32 882.296 989.235 877.787C1004.92 873.354 1020.83 869.001 1037.06 864.802C1048.65 861.926 1060.47 859.283 1072.6 856.873C1084.65 854.463 1096.86 852.207 1109.06 850.185C1121.35 848.164 1133.63 846.608 1145.92 845.521C1158.12 844.432 1170.25 843.811 1182.23 843.655H1182.3L1191.27 843.811C1195.75 843.811 1200.15 844.045 1204.4 844.355C1208.65 844.665 1213.05 845.132 1217.54 845.675C1226.42 846.842 1234.61 848.864 1242.1 851.664C1248.67 853.84 1254.7 856.717 1260.18 860.216C1265.67 863.715 1270.61 867.912 1274.94 872.734C1279.34 877.71 1282.67 883.152 1284.91 889.061C1287.07 894.97 1288.07 901.346 1288 908.186C1288 911.142 1287.61 914.095 1287.07 917.128C1286.53 920.16 1285.68 923.27 1284.52 926.459V926.769L1284.29 927.003C1284.13 927.236 1284.06 927.779 1283.9 928.479C1283.75 929.412 1283.67 930.656 1283.67 932.135C1283.67 934.855 1284.29 936.798 1285.6 937.965C1286.37 938.664 1287.22 939.131 1288.07 939.441C1289.08 939.831 1290.08 939.987 1291.24 939.987C1293.79 939.987 1296.18 939.441 1298.35 938.198L1298.27 937.811ZM970.691 1495.82C974.4 1483.69 978.727 1471.56 984.058 1460.05C1004.45 1416.51 1030.34 1373.83 1062.4 1338.06C1079.01 1319.48 1095.39 1300.74 1113.08 1283.25C1137.42 1259.23 1164.23 1238 1193.43 1220.12C1203.86 1213.74 1214.52 1207.6 1225.03 1201.38C1228.2 1199.52 1230.05 1201.07 1230.21 1203.95C1230.44 1207.68 1230.67 1211.72 1229.43 1215.14C1224.64 1228.51 1219.7 1241.81 1213.98 1254.79C1207.26 1270.19 1200.23 1285.51 1192.35 1300.28C1182.62 1318.55 1171.95 1336.35 1161.37 1354.08C1141.13 1387.98 1118.33 1420.09 1095.23 1451.97C1077.15 1476.85 1056.91 1499.94 1034.2 1520.7C1021.68 1532.13 1008.7 1543.24 992.326 1548.61C987.303 1550.24 981.431 1550.4 976.178 1549.54C973.087 1549 969.534 1545.73 967.987 1542.78C960.725 1528.01 966.055 1510.67 970.691 1495.82ZM1631.57 1146.8C1631.88 1148.04 1630.02 1150.53 1628.48 1151.54C1615.73 1159.94 1604.99 1170.59 1594.79 1181.94C1590 1187.31 1585.29 1192.83 1580.34 1198.12C1578.03 1200.6 1574.32 1198.66 1576.25 1195.47C1576.4 1195.24 1576.48 1195.08 1576.64 1194.85C1581.58 1186.69 1586.22 1178.13 1592.09 1170.67C1598.35 1162.82 1605.69 1155.74 1613.18 1149.06C1615.58 1146.96 1618.59 1145.56 1621.83 1144.16C1625.31 1142.6 1630.1 1141.67 1631.49 1146.8H1631.57ZM1145.92 1137.55C1157.04 1138.48 1165.85 1145.4 1168.86 1155.9C1169.79 1159.16 1168.63 1161.26 1165.85 1162.66C1141.2 1175.26 1116.64 1188.01 1091.84 1200.37C1085.19 1203.63 1077.93 1205.66 1070.9 1207.99C1069.51 1208.46 1067.11 1208.22 1066.26 1207.29C1065.41 1206.43 1065.26 1203.79 1065.95 1202.7C1069.89 1196.33 1073.6 1189.64 1078.54 1184.2C1093.69 1167.48 1111.07 1153.41 1130.93 1142.76C1135.49 1140.35 1140.89 1139.26 1145.84 1137.62L1145.92 1137.55Z" fill="#EEEEEE"></path><path d="M2288.54 1164.99C2302.37 1158.22 2315.28 1149.51 2328.64 1141.66C2333.27 1138.94 2337.91 1136.3 2342.79 1134.12C2344.26 1133.5 2346.57 1134.58 2348.5 1134.9C2347.8 1136.61 2347.57 1139.02 2346.33 1139.95C2337.37 1146.33 2328.41 1152.62 2319.14 1158.53C2310.41 1164.13 2301.37 1169.42 2292.41 1174.63C2263.59 1191.5 2221.4 1210.39 2187.49 1208.45C2168.87 1207.36 2153.26 1200.21 2145.92 1181.7C2143.22 1174.78 2143.37 1166.77 2142.14 1159.23C2141.98 1158.14 2141.83 1156.28 2141.37 1156.2C2140.28 1155.97 2138.82 1156.28 2137.89 1156.9C2107.83 1175.01 2077.16 1194.06 2044.4 1207.2C2036.99 1210.16 2029.8 1209.23 2023.62 1204.17C2020.38 1201.53 2019.45 1197.41 2020.84 1193.36C2024.16 1183.96 2028.88 1175.4 2032.35 1166.31C2033.59 1163.12 2030.73 1159.93 2026.17 1159.15C2023.16 1158.61 2020.07 1158.53 2017.21 1157.68C2011.88 1156.04 2006.63 1154.18 2001.53 1151.84C1999.05 1150.76 1997.74 1150.45 1995.58 1152.54C1980.74 1167.16 1952.93 1193.13 1930.83 1192.74C1922.26 1192.59 1917.7 1186.37 1914.76 1178.98C1913.91 1176.8 1913.3 1174.55 1912.37 1172.45C1910.59 1168.72 1908.12 1168.72 1905.49 1171.9C1891.89 1188.47 1877.29 1203.78 1858.13 1213.97C1849.48 1218.55 1841.06 1217 1835.11 1209.85C1833.87 1208.37 1832.95 1206.35 1832.48 1204.48C1830.32 1195.7 1831.79 1187.3 1835.19 1178.98C1842.37 1161.18 1853.42 1145.7 1864.16 1130.07C1865.39 1128.29 1867.09 1126.97 1868.72 1125.49C1871.27 1123.08 1874.59 1120.67 1877.52 1122.92C1880.23 1124.94 1882.7 1128.52 1883.47 1131.86C1885.17 1139.72 1881.93 1146.71 1877.83 1153.24C1872.73 1161.49 1867.25 1169.5 1862.15 1177.74C1860.6 1180.15 1859.29 1182.87 1858.44 1185.59C1857.98 1187.14 1858.52 1189.01 1858.6 1190.8C1860.37 1190.64 1862.61 1191.19 1863.85 1190.33C1869.8 1186.06 1875.9 1181.78 1881.31 1176.8C1892.2 1166.62 1902.63 1155.97 1913.3 1145.47C1915.38 1143.37 1917.54 1140.81 1920.71 1142.59C1923.96 1144.38 1924.11 1147.73 1924.11 1151.3C1924.03 1160.09 1924.03 1168.95 1924.81 1177.74C1925.42 1184.42 1929.67 1187.53 1936.09 1185.59C1956.71 1179.29 1977.19 1157.13 1993.26 1142.59C1995.19 1140.81 1996.27 1137.77 1996.97 1135.05C2001.68 1117.79 2010.26 1103.25 2026.02 1094C2033.97 1089.33 2040.39 1093.53 2042.47 1101.08C2043.86 1106.13 2040.7 1110.79 2037.3 1114.29C2032.2 1119.58 2026.4 1124.25 2021 1129.14C2019.3 1130.7 2017.59 1132.25 2016.05 1134.04C2011.41 1139.48 2012.96 1145.24 2019.6 1147.8C2023.55 1149.28 2027.49 1150.68 2031.43 1151.92C2039.69 1154.49 2043.63 1161.56 2040.85 1169.88C2038.22 1177.74 2033.05 1185.98 2031.19 1193.91C2029.8 1199.74 2033.59 1203.7 2039.31 1201.92C2069.51 1192.43 2107.22 1165.69 2135.26 1148.66C2141.13 1145.08 2145.31 1140.49 2148.01 1133.88C2155.27 1116.24 2165.62 1100.84 2182.08 1090.58C2190.89 1085.14 2200.47 1079.69 2209.12 1087.78C2212.44 1090.97 2213.29 1094.7 2211.75 1099.29C2206.8 1114.29 2195.83 1124.09 2183.7 1133.03C2178.84 1136.61 2174.12 1140.42 2169.56 1144.38C2154.73 1157.37 2162.76 1188 2179.61 1192.2C2216.38 1201.45 2255.79 1180.92 2288.62 1164.91M2180.46 1121.6C2185.48 1115.93 2193.82 1108.69 2198.69 1103.02C2201.32 1099.91 2195.06 1096.88 2192.74 1099.68C2188.18 1105.2 2179.22 1114.29 2174.9 1120.05C2173.58 1121.84 2177.06 1125.33 2180.46 1121.52V1121.6Z" fill="#EEEEEE"></path><path d="M1032.43 1062.99C1041 1062.84 1044.09 1067.81 1040.54 1075.82C1036.91 1083.99 1027.48 1089.9 1018.75 1089.58C1013.03 1089.43 1009.56 1084.53 1011.18 1079.09C1013.89 1070.07 1023.08 1063.15 1032.43 1062.99Z" fill="#EEEEEE"></path><path fill-rule="evenodd" clip-rule="evenodd" d="M151.583 467.156L260.75 154.915H262.992L372.159 467.156H151.583ZM1305.38 87.4282C1307.46 87.5838 1309.08 88.8276 1309.24 90.3827V678.404C1309.24 678.404 1309.24 678.714 1309.24 678.791V702.194C1309.24 703.904 1307.3 705.383 1304.99 705.383H1241.33C1239.01 705.383 1237.08 703.983 1237.08 702.194V678.791C1237.08 678.324 1237.23 677.858 1237.46 677.471V113.941V90.5381C1237.46 88.9053 1239.24 87.5058 1241.4 87.3505H1241.71H1305.3L1305.38 87.4282ZM2429.81 87.2728H2504.81C2507.15 87.2728 2509.62 88.6723 2510.23 90.4604L2518.65 114.019C2518.81 114.485 2518.81 114.874 2518.74 115.263L2720.46 677.625C2720.46 677.625 2721.07 678.404 2721.23 678.87L2729.35 702.117C2729.96 703.827 2728.58 705.227 2726.25 705.227H2661.88C2659.57 705.227 2657.17 703.827 2656.64 702.117L2655.87 699.861L2653.39 692.552L2648.61 678.791C2648.61 678.791 2648.45 678.325 2648.45 678.091L2592.67 514.818H2341.26L2283.55 678.091C2283.55 678.091 2283.55 678.947 2283.48 679.335L2275.29 702.038C2274.67 703.75 2272.35 705.07 2270.11 705.07H2208.38C2206.14 705.07 2204.75 703.671 2205.37 702.038L2213.56 679.335C2213.56 679.335 2213.94 678.637 2214.18 678.247L2417.99 110.053L2424.64 90.305C2425.24 88.5943 2427.64 87.1172 2429.95 87.1172L2429.81 87.2728ZM224.593 87.4282H299.613C301.929 87.4282 304.402 88.8276 305.02 90.616L313.442 114.174C313.442 114.174 313.596 114.64 313.596 114.874L515.552 677.781C515.552 677.781 516.016 678.481 516.17 678.87L524.281 702.117C524.899 703.827 523.509 705.227 521.193 705.227H456.834C454.518 705.227 452.122 703.827 451.504 702.117L443.393 678.87C443.393 678.87 443.236 678.247 443.236 678.014L387.533 514.972H136.131L78.3413 678.404C78.3413 678.404 78.3413 679.181 78.2641 679.568L70.0747 702.271C69.4567 703.983 67.1388 705.304 64.8983 705.304H3.16808C0.927567 705.304 -0.463101 703.904 0.154974 702.271L8.34445 679.568C8.49898 679.181 8.73075 678.791 9.0398 678.404L212.464 111.064L219.263 90.6937C219.881 88.9832 222.276 87.5058 224.593 87.5058V87.4282ZM2107.79 87.3505H2043.51C2043.51 87.3505 2043.2 87.3505 2043.05 87.3505H2004.8H1999.09C1996.77 87.3505 1994.3 88.7499 1993.68 90.5381L1988.42 105L1794.35 626.155H1792.11L1606.15 115.651C1606.38 115.185 1606.38 114.64 1606.15 114.019L1597.26 90.5381C1596.56 88.8276 1594.17 87.3505 1591.85 87.3505H1546.81C1546.81 87.3505 1546.42 87.3505 1546.27 87.3505H1479.9C1477.59 87.3505 1475.65 88.7499 1475.65 90.5381V114.019C1475.65 114.019 1475.65 114.407 1475.65 114.64V678.558C1475.65 678.558 1475.65 678.791 1475.65 678.87V702.271C1475.65 703.983 1477.59 705.46 1479.9 705.46H1543.56C1545.88 705.46 1547.81 704.06 1547.81 702.271V678.87C1547.81 678.404 1547.66 677.937 1547.43 677.548V140.998H1549.67L1747.14 678.637V678.87L1755.8 702.271C1756.42 703.983 1758.89 705.46 1761.2 705.46H1797.98C1797.98 705.46 1798.67 705.46 1799.06 705.383H1828.81C1831.12 705.383 1833.52 703.983 1834.14 702.194L1839.31 687.966L2038.02 141.075H2040.11V678.091C2040.03 678.325 2039.95 678.637 2039.95 678.87V702.271C2039.95 703.983 2041.89 705.46 2044.21 705.46H2107.87C2110.19 705.46 2112.12 704.06 2112.12 702.271V678.87C2112.12 678.87 2112.12 678.171 2111.88 677.858V115.263C2111.88 115.263 2112.12 114.64 2112.12 114.329V90.616C2112.12 88.8276 2110.19 87.4282 2107.87 87.4282L2107.79 87.3505ZM1010.24 87.3505H1073.44C1073.44 87.3505 1073.75 87.3505 1073.9 87.3505H1073.98C1076.07 87.5838 1077.69 88.9055 1077.69 90.4604V677.548C1077.69 677.548 1077.92 678.247 1077.92 678.558V702.194C1077.92 703.983 1075.99 705.383 1073.67 705.383H1018.12H994.791C992.474 705.383 989.848 703.983 988.842 702.271L985.212 696.052L684.132 176.374H681.892V678.714V702.117C681.892 703.827 679.961 705.304 677.642 705.304H613.981C611.662 705.304 609.731 703.904 609.731 702.117V678.714C609.731 678.247 609.885 677.781 610.118 677.391V114.252C610.118 114.252 609.964 113.708 609.964 113.474V90.2271C609.964 88.5167 611.816 87.1172 614.135 87.1172H615.99H695.565C697.884 87.1172 700.511 88.5167 701.516 90.2271L714.573 113.474C714.573 113.474 714.804 114.019 714.881 114.252L1003.68 617.913H1005.92V113.941V90.5381V90.305V90.1494C1006.15 88.7499 1007.62 87.5838 1009.47 87.3505H1009.63C1009.78 87.3505 1009.94 87.3505 1010.09 87.3505H1010.24ZM2356.56 467.156L2465.74 154.915H2467.98L2577.13 467.156H2356.63H2356.56Z" fill="#EEEEEE"></path><path fill-rule="evenodd" clip-rule="evenodd" d="M203.346 0H324.952C329.049 0 332.37 3.34323 332.37 7.46395V41.8294C332.37 45.9501 329.049 49.2933 324.952 49.2933H203.346C199.252 49.2933 195.93 45.9501 195.93 41.8294V7.46395C195.93 3.34323 199.252 0 203.346 0Z" fill="#C4BCB9"></path></g></g><defs><clipPath id="clip0_1549_8511"><rect width="2729.42" height="1563" fill="white"></rect></clipPath></defs></svg> 